<svg xmlns="http://www.w3.org/2000/svg" viewBox="0 0 410.07 67.95">
    <defs>
        <style>.cls-1{fill:none;}</style>
    </defs>
    <title>alabena-logo-color</title>
    <path class="cls-1"
          d="M223.12 40.48a11.66 11.66 0 0 0-8.93 3.79 13.4 13.4 0 0 0-3.53 9.61 10.68 10.68 0 0 0 3 7.94 10.56 10.56 0 0 0 7.89 3.09 12 12 0 0 0 9-3.84 12.8 12.8 0 0 0 3.73-9.29 11.09 11.09 0 0 0-3.11-8.14 10.85 10.85 0 0 0-8.05-3.16z"
          transform="translate(0 -4.54)"/>
    <path class="cls-1" d="M271.93 35.62q-8.1 0-10.54 8.62h20.54q-1.46-8.62-10-8.62z"/>
    <path class="cls-1"
          d="M367.27 40.48a11.17 11.17 0 0 0-8.63 3.83 13.65 13.65 0 0 0-3.49 9.49 11.28 11.28 0 0 0 2.91 8 9.74 9.74 0 0 0 7.47 3.2 11.68 11.68 0 0 0 8.76-4 13.41 13.41 0 0 0 3.71-9.38 11 11 0 0 0-3-8 10.2 10.2 0 0 0-7.73-3.14zM169.49 40.48a11.21 11.21 0 0 0-8.64 3.83 13.69 13.69 0 0 0-3.48 9.49 11.32 11.32 0 0 0 2.9 8 9.77 9.77 0 0 0 7.47 3.2 11.65 11.65 0 0 0 8.76-4 13.42 13.42 0 0 0 3.7-9.41 11 11 0 0 0-3-8 10.22 10.22 0 0 0-7.71-3.11zM96.31 40.48a11.17 11.17 0 0 0-8.63 3.83 13.65 13.65 0 0 0-3.49 9.49 11.32 11.32 0 0 0 2.9 8 9.77 9.77 0 0 0 7.48 3.2 11.64 11.64 0 0 0 8.75-4 13.37 13.37 0 0 0 3.7-9.41 11 11 0 0 0-3-8 10.22 10.22 0 0 0-7.71-3.11z"
          transform="translate(0 -4.54)"/>
    <path d="M108.39 39a20 20 0 0 0-6.1-4.5 17.61 17.61 0 0 0-7.14-1.31 19.38 19.38 0 0 0-14.57 5.89q-5.58 5.86-5.58 15.07 0 8 4.9 13a16.91 16.91 0 0 0 12.66 5q6.31 0 12.2-4.9l-.53 4h9.17l4.81-37.24h-9.21zm-5.07 22a11.64 11.64 0 0 1-8.75 4 9.77 9.77 0 0 1-7.48-3.13 11.32 11.32 0 0 1-2.9-8 13.65 13.65 0 0 1 3.49-9.49 11.17 11.17 0 0 1 8.63-3.83 10.22 10.22 0 0 1 7.69 3.05 11 11 0 0 1 3 8 13.37 13.37 0 0 1-3.68 9.4z"
          transform="translate(0 -4.54)"/>
    <path d="M126.19 66.77h9.18l8.59-66.77h-9.13l-8.64 66.77z"/>
    <path d="M181.57 39a19.9 19.9 0 0 0-6.11-4.5 17.53 17.53 0 0 0-7.13-1.31 19.38 19.38 0 0 0-14.57 5.89q-5.61 5.89-5.61 15.1 0 8 4.9 13a16.9 16.9 0 0 0 12.66 5q6.31 0 12.2-4.9l-.54 4h9.18l4.81-37.24h-9.17zm-5.07 22a11.65 11.65 0 0 1-8.76 4 9.77 9.77 0 0 1-7.47-3.13 11.32 11.32 0 0 1-2.9-8 13.69 13.69 0 0 1 3.48-9.49 11.21 11.21 0 0 1 8.64-3.83 10.22 10.22 0 0 1 7.72 3.12 11 11 0 0 1 3 8 13.42 13.42 0 0 1-3.71 9.33zM225.19 33.16a19.47 19.47 0 0 0-6 .91 24.76 24.76 0 0 0-6.27 3.44l4.28-33h-9.2l-8.64 66.77h9.18l.66-5a19.32 19.32 0 0 0 13.95 5.85 20.2 20.2 0 0 0 20.38-20.6 17.8 17.8 0 0 0-18.35-18.42zm5.4 27.91a12 12 0 0 1-9 3.84 10.56 10.56 0 0 1-7.89-3.09 10.68 10.68 0 0 1-3-7.94 13.4 13.4 0 0 1 3.53-9.61 11.66 11.66 0 0 1 8.93-3.79 10.85 10.85 0 0 1 8.09 3.16 11.09 11.09 0 0 1 3.11 8.14 12.8 12.8 0 0 1-3.77 9.29zM272.38 32.85a20.07 20.07 0 0 0-14.9 6 20.42 20.42 0 0 0-5.93 14.94q0 8.54 5.39 13.64t14.49 5.1a21.76 21.76 0 0 0 9.57-1.89 21.44 21.44 0 0 0 7.34-6.41l-6.85-3.59c-2.29 3-5.59 4.58-9.87 4.58a11.28 11.28 0 0 1-7.72-2.65 8.6 8.6 0 0 1-3-6.76h30.22c.08-1.42.12-2.45.12-3.08q0-9.09-5.11-14.51t-13.75-5.37zm-11 15.93q2.44-8.62 10.54-8.62 8.55 0 10 8.62zM323.73 33.16q-5.57 0-11 4.35l.42-3.44h-9.15l-4.8 37.24h9.17l2.33-18c.19-1.5.41-2.82.66-4a14.54 14.54 0 0 1 .91-2.91 9.92 9.92 0 0 1 3.08-3.95 9.28 9.28 0 0 1 6.06-2.05c3.81 0 5.72 1.68 5.72 5.06 0 .5 0 1.06-.06 1.7s-.12 1.35-.23 2.17l-2.84 21.98h9.13l2.62-20a56 56 0 0 0 .5-6.8 10.64 10.64 0 0 0-3.37-8.3 13.33 13.33 0 0 0-9.15-3.05zM379.35 39a19.87 19.87 0 0 0-6.1-4.5 17.61 17.61 0 0 0-7.14-1.31 19.39 19.39 0 0 0-14.57 5.89q-5.61 5.89-5.6 15.1 0 8 4.89 13a16.91 16.91 0 0 0 12.66 5q6.31 0 12.21-4.9l-.54 4h9.17l4.82-37.24h-9.15zm-5.06 22a11.68 11.68 0 0 1-8.76 4 9.74 9.74 0 0 1-7.47-3.13 11.28 11.28 0 0 1-2.91-8 13.65 13.65 0 0 1 3.49-9.49 11.17 11.17 0 0 1 8.63-3.83 10.2 10.2 0 0 1 7.73 3.05 11 11 0 0 1 3 8 13.41 13.41 0 0 1-3.71 9.4zM408.32 63.13a5.79 5.79 0 0 0-4.15-1.62 5.32 5.32 0 0 0-3.78 1.5 5.08 5.08 0 0 0-1.49 3.71 5.22 5.22 0 0 0 1.62 3.88 5.4 5.4 0 0 0 3.9 1.58 5.7 5.7 0 0 0 3.95-1.54 4.78 4.78 0 0 0 1.7-3.64 5.08 5.08 0 0 0-1.75-3.87zM62 39.5h-39a3 3 0 0 0 0 6h39a3 3 0 0 0 0-6zM62 65.5h-59a3 3 0 0 0 0 6h59a3 3 0 0 0 0-6zM62 52.5h-49a3 3 0 0 0 0 6h49a3 3 0 0 0 0-6z"
          transform="translate(0 -4.54)"/>
</svg>
