<svg xmlns="http://www.w3.org/2000/svg" viewBox="0 0 512 512" enable-background="new 0 0 512 512">
    <style type="text/css">.st0{fill:#FFA730;} .st1{fill:#E58D23;} .st2{fill:#BF6C0D;} .st3{fill:#A56021;}
        .st4{fill:#FFD551;} .st5{fill:#FFF4C1;} .st6{fill:#FFC34C;} .st7{fill:#FFEA63;} .st8{fill:#FCE575;}
        .st9{fill:#FFB74B;} .st10{fill:#8C4C17;} .st11{fill:#F9BB32;} .st12{fill:#FF4B34;} .st13{fill:#FF9079;}
        .st14{fill:#FFDF74;} .st15{fill:#FF624B;} .st16{fill:#CCC033;} .st17{fill:#EACF32;} .st18{fill:#FFEACF;}
        .st19{fill:#99AF17;} .st20{fill:#FFD59A;} .st21{fill:#FCDA4F;} .st22{fill:#FCF9DE;} .st23{fill:#DB9C2E;}
    </style>
    <path class="st8"
          d="M188.961 299.233s.217-78.453-73.15-144.939c-3.718-3.369-9.38-3.369-13.098 0-73.367 66.486-73.15 144.939-73.15 144.939l.237.018c-.141 1.935-.237 3.882-.237 5.852 0 44.017 35.683 79.699 79.699 79.699 44.017 0 79.7-35.683 79.7-79.699 0-1.971-.096-3.918-.237-5.852l.236-.018z"/>
    <path class="st4"
          d="M67.562 305.104c0-1.971.096-3.918.237-5.853l-.237-.018s-.185-69.298 60.699-132.83c-3.897-4.066-8.037-8.109-12.451-12.108-3.718-3.37-9.38-3.37-13.098 0-73.367 66.485-73.15 144.938-73.15 144.938l.237.018c-.141 1.935-.237 3.882-.237 5.853 0 44.017 35.683 79.699 79.699 79.699 6.55 0 12.909-.808 19-2.298-34.839-8.524-60.699-39.936-60.699-77.401z"/>
    <path class="st8"
          d="M256.948 120.913l-73.306-73.306.063-.605-64.223-6.675c-6.528-.679-12.37 4.064-13.049 10.592-.679 6.528 4.064 12.37 10.592 13.049l55.091 5.726 68.027 68.027 16.805-16.808z"/>
    <path class="st4"
          d="M126.924 54.067c-6.528-.679-11.271-6.521-10.592-13.049l.094-.603c-5.204.808-9.423 5.018-9.993 10.503-.679 6.528 4.064 12.37 10.592 13.049l55.091 5.726 68.027 68.027 9.899-9.899-68.027-68.027-55.091-5.727z"/>
    <path class="st10"
          d="M482.438 486.739c-8.284 0-15-6.716-15-15v-101.737l-80.305-81.348c-5.82-5.896-5.759-15.393.137-21.213 5.896-5.82 15.392-5.758 21.213.137l84.63 85.729c2.771 2.808 4.325 6.593 4.325 10.538v107.893c0 8.285-6.716 15.001-15 15.001z"/>
    <path class="st17"
          d="M474.951 327.641l-27.619 27.619c-3.905 3.905-10.237 3.905-14.142 0l-23.339-23.339 41.761-41.761 23.339 23.339c3.905 3.905 3.905 10.237 0 14.142z"/>
    <path class="st16"
          d="M453.696 334.754l-23.339-23.339-20.506 20.506 23.339 23.339c3.905 3.905 10.237 3.905 14.142 0l20.506-20.506c-3.905 3.906-10.237 3.906-14.142 0z"/>
    <path class="st17"
          d="M256.475 178.546l-38.766-38.766c-3.124-3.124-3.124-8.19 0-11.314l29.593-29.593c3.124-3.124 8.19-3.124 11.314 0l38.766 38.766-40.907 40.907z"/>
    <path class="st16"
          d="M239.426 106.75l-21.455 21.455c-3.269 3.269-3.269 8.568 0 11.837l38.504 38.504 21.455-21.455-38.504-38.504c-3.269-3.269-3.269-8.568 0-11.837z"/>
    <path class="st0"
          d="M381.719 363.193c-2.303 0-4.606-.879-6.364-2.636l-44.755-44.756c-2.597-2.597-6.173-4.028-9.867-3.956l-25.133.573c-4.97.1-9.089-3.823-9.203-8.792-.113-4.969 3.823-9.089 8.792-9.203l25.133-.573c8.544-.193 16.948 3.166 23.004 9.223l44.756 44.756c3.515 3.515 3.515 9.213 0 12.728-1.756 1.757-4.06 2.636-6.363 2.636z"/>
    <path class="st16"
          d="M271.489 199.948l-46.137 46.137 126.793 126.793c4.989 4.989 12.779 5.831 18.718 2.022l46.048-29.53 41.761-41.761c7.029-7.029 7.029-18.427 0-25.456l-132.694-132.694-54.489 54.489zm116.349 137.578c2.71 2.71 2.222 7.232-1.004 9.301l-18.987 12.176c-2.97 1.904-6.864 1.484-9.359-1.011l-111.907-111.906 24.908-24.908 116.349 116.348z"/>
    <path class="st19"
          d="M246.581 246.086l24.908-24.908 36.434 36.433 65.104-65.104-47.049-47.048-54.489 54.489-46.137 46.138 47.048 47.048 10.615-10.615z"/>
    <path class="st16"
          d="M351.717 116.72l-40.953-10.182-11.853 11.853-92.665 92.665c-4.397 4.397-4.397 11.525 0 15.922l52.012 52.012 100.626-100.626 11.853-11.853 10.084-10.084c4.397-4.397 4.397-11.525 0-15.922l-16.867-16.867c-3.375-3.375-7.605-5.766-12.237-6.918z"/>
    <path class="st19"
          d="M388.664 338.561c1.726 2.714 1.013 6.442-1.831 8.266l-18.987 12.176c-2.97 1.904-6.864 1.484-9.359-1.011l-89.615-89.615 24.741-24.741-32.906-32.906-19.106-19.106c-4.397-4.397-4.397-11.525 0-15.922l-35.355 35.355c-4.397 4.397-4.397 11.525 0 15.922l19.106 19.106 32.906 32.906 93.887 93.887c4.989 4.989 12.779 5.831 18.718 2.022l46.048-29.53 35.355-35.355-46.048 29.53c-5.496 3.525-12.574 3.059-17.554-.984z"/>
    <path class="st12"
          d="M124.893 273.358c-9.304 9.304-24.389 9.304-33.693 0-11.661-11.661-11.661-30.566 0-42.227l15.017-15.017c.972-.972 2.547-.972 3.519 0l15.157 15.157c11.622 11.623 11.622 30.465 0 42.087z"/>
    <path class="st19"
          d="M109.262 358.454c-2.538 0-4.596-2.057-4.596-4.596v-73.874h9.191v73.874c0 2.539-2.057 4.596-4.595 4.596z"/>
    <path class="st17"
          d="M143.916 307.937c.026-.571-.475-1.04-1.09-1.024-22.729.562-28.849 10.749-28.849 10.749-1.434 1.98-2.263 4.365-2.242 6.925.055 6.789 6.06 12.243 13.412 12.183.371-.003.738-.021 1.102-.051 15.487-.393 17.426-23.547 17.667-28.782zM75.067 294.822c-.605-.031-1.106.472-1.095 1.095.398 22.998 11.143 29.273 11.143 29.273 2.087 1.467 4.607 2.326 7.321 2.326 7.196 0 13.03-6.029 13.03-13.467 0-.376-.016-.747-.045-1.115-.282-15.672-24.807-17.825-30.354-18.112z"/>
    <path class="st13"
          d="M115.012 279.227c-13.145.583-24.273-9.601-24.856-22.745-.731-16.474 12.032-30.422 28.507-31.152l21.216-.941c1.373-.061 2.535 1.003 2.596 2.376l.95 21.414c.727 16.418-11.994 30.319-28.413 31.048z"/>
    <path class="st15"
          d="M126.183 254.056c.583 13.145-9.601 24.273-22.745 24.856-16.474.731-30.422-12.032-31.152-28.507l-.941-21.216c-.061-1.373 1.003-2.535 2.376-2.596l21.414-.95c16.419-.728 30.32 11.993 31.048 28.413z"/>
    <path class="st16"
          d="M95.115 325.189s-10.745-6.275-11.143-29.272l.004-.022c-3.894-.73-7.251-.986-8.909-1.072-.605-.031-1.106.472-1.095 1.095.398 22.997 11.143 29.272 11.143 29.272 2.087 1.468 4.607 2.325 7.321 2.325 1.774 0 3.463-.369 5.004-1.032-.82-.353-1.6-.784-2.325-1.294zM119.734 330.587c-.021-2.561.808-4.945 2.242-6.926 0 0 4.754-7.899 21.417-10.167.337-2.423.47-4.416.522-5.557.026-.571-.475-1.04-1.09-1.024-22.729.562-28.849 10.748-28.849 10.748-1.435 1.98-2.263 4.365-2.242 6.926.045 5.556 4.079 10.214 9.572 11.69-.984-1.697-1.555-3.631-1.572-5.69z"/>
    <circle class="st19" cx="404.597" cy="315.5" r="15"/>
    <circle class="st19" cx="286.784" cy="204" r="15"/>
    <path class="st17"
          d="M368.25 154.324c-1.536 0-3.071-.586-4.243-1.757l-16.588-16.588-25.294-5.621c-3.235-.719-5.274-3.924-4.555-7.159.719-3.234 3.926-5.273 7.159-4.555l27 6c1.114.248 2.134.808 2.941 1.614l17.824 17.824c2.343 2.343 2.343 6.142 0 8.485-1.173 1.171-2.709 1.757-4.244 1.757zM388.261 235.665c-1.536 0-3.071-.586-4.243-1.757l-10.665-10.665c-2.343-2.343-2.343-6.142 0-8.485 2.343-2.343 6.143-2.343 8.485 0l10.665 10.665c2.343 2.343 2.343 6.142 0 8.485-1.17 1.171-2.706 1.757-4.242 1.757zM443.059 290.208c-1.536 0-3.071-.586-4.243-1.757l-42.208-42.208c-2.343-2.343-2.343-6.142 0-8.485 2.343-2.343 6.143-2.343 8.485 0l42.208 42.208c2.343 2.343 2.343 6.142 0 8.485-1.171 1.171-2.706 1.757-4.242 1.757z"/>
    <path class="st5"
          d="M136.71 363.607c-2.315 0-4.52-1.347-5.503-3.605-1.321-3.032.061-6.56 3.087-7.89 1.371-.609 33.117-15.165 31.235-54.173-.16-3.31 2.394-6.123 5.704-6.282 3.303-.141 6.123 2.394 6.282 5.704 1.194 24.767-9.261 41.313-18.243 50.833-9.699 10.28-19.746 14.727-20.168 14.911-.781.341-1.594.502-2.394.502z"/>
</svg>
