<svg xmlns="http://www.w3.org/2000/svg" viewBox="0 0 512 512"><defs><style type="text/css">.st0{fill:#FFA730;} .st1{fill:#E58D23;} .st2{fill:#BF6C0D;} .st3{fill:#A56021;} .st4{fill:#FFD551;} .st5{fill:#FFF4C1;} .st6{fill:#FFC34C;} .st7{fill:#FFEA63;} .st8{fill:#FCE575;} .st9{fill:#FFB74B;} .st10{fill:#8C4C17;} .st11{fill:#F9BB32;} .st12{fill:#FF4B34;} .st13{fill:#FF9079;} .st14{fill:#FFDF74;} .st15{fill:#FF624B;} .st16{fill:#CCC033;} .st17{fill:#EACF32;} .st18{fill:#FFEACF;} .st19{fill:#99AF17;} .st20{fill:#FFD59A;} .st21{fill:#FCDA4F;} .st22{fill:#FCF9DE;} .st23{fill:#DB9C2E;}</style></defs><path class="st3" d="M457.61 480.451h-12.78c-4.418 0-8-3.582-8-8v-44.577h28.78v44.577c0 4.419-3.581 8-8 8z"/><path class="st10" d="M448.83 459.874h16.78v-32h-28.78v44.577c0 4.418 3.582 8 8 8h4v-20.577z"/><path class="st2" d="M460.27 451.265h-31.95c-11.046 0-20-8.954-20-20v-300.211c0-11.046 8.954-20 20-20h31.95c11.046 0 20 8.954 20 20v300.211c0 11.046-8.954 20-20 20z"/><path class="st3" d="M410.252 175.232h-1.932v256.033c0 11.046 8.954 20 20 20h24.331v-233.634c0-23.416-18.983-42.399-42.399-42.399z"/><path class="st10" d="M328.124 201.839c-5.523 0-10-4.477-10-10v-141.103c0-5.066-4.664-9.188-10.396-9.188h-128.04c-5.732 0-10.396 4.122-10.396 9.188v46.444c0 5.523-4.477 10-10 10s-10-4.477-10-10v-46.444c0-16.094 13.635-29.188 30.396-29.188h128.04c16.76 0 30.396 13.094 30.396 29.188v141.103c0 5.523-4.477 10-10 10z"/><path class="st1" d="M388.759 213.159h-121.27v-43.788c0-8.284 6.716-15 15-15h91.27c8.284 0 15 6.716 15 15v43.788z"/><path class="st2" d="M277.489 183.371c0-8.284 6.716-15 15-15h91.27c1.753 0 3.429.316 4.993.869-.071-8.223-6.753-14.869-14.993-14.869h-91.27c-8.284 0-15 6.716-15 15v43.788h10v-29.788zm34.366 17.609v-18.947c0-10.177-2.95-19.659-8.024-27.662h-21.341c-8.284 0-15 6.716-15 15v31.609h44.365z"/><path class="st9" d="M432.651 243.157h-209.054v-15.526c0-23.416 18.983-42.399 42.399-42.399h124.256c23.416 0 42.399 18.983 42.399 42.399v15.526z"/><path class="st0" d="M422.651 479.921h-189.054c-5.523 0-10-4.477-10-10v-226.764h209.054v226.764c0 5.523-4.477 10-10 10zm-111.796-278.941v-15.748h-44.859c-23.416 0-42.399 18.983-42.399 42.399v15.526h87.258v-42.177z"/><path class="st1" d="M310.855 469.921v-226.764h-87.258v226.764c0 5.523 4.529 10 10.116 10h67.026c5.587 0 10.116-4.477 10.116-10z"/><path class="st9" d="M233.29 160.371h-147.995v-56.743c0-8.284 6.716-15 15-15h117.995c8.284 0 15 6.716 15 15v56.743z"/><path class="st0" d="M150.295 88.628h-50c-8.284 0-15 6.716-15 15v56.743h50v-56.743c0-8.284 6.716-15 15-15z"/><path class="st4" d="M286.855 200.98h-255.125v-18.947c0-28.577 23.166-51.743 51.743-51.743h151.639c28.577 0 51.743 23.166 51.743 51.743v18.947z"/><path class="st6" d="M133.473 130.29h-50c-28.577 0-51.743 23.166-51.743 51.743v18.947h50v-18.947c0-28.577 23.166-51.743 51.743-51.743zm143.382 349.631h-235.125c-5.523 0-10-4.477-10-10v-278.941h255.125v278.941c0 5.523-4.477 10-10 10z"/><path class="st9" d="M81.73 469.921v-278.941h-50v278.941c0 5.523 4.477 10 10 10h50c-5.523 0-10-4.477-10-10z"/><path class="st4" d="M264.256 292.602c-3.313 0-6-2.686-6-6v-15.591c0-3.314 2.687-6 6-6s6 2.686 6 6v15.591c0 3.314-2.687 6-6 6zm0 170.514c-3.313 0-6-2.686-6-6v-149.116c0-3.314 2.687-6 6-6s6 2.686 6 6v149.116c0 3.314-2.687 6-6 6z"/><path class="st11" d="M408.256 292.602c-3.313 0-6-2.686-6-6v-15.591c0-3.314 2.687-6 6-6s6 2.686 6 6v15.591c0 3.314-2.687 6-6 6zm0 170.514c-3.313 0-6-2.686-6-6v-149.116c0-3.314 2.687-6 6-6s6 2.686 6 6v149.116c0 3.314-2.687 6-6 6z"/><path class="st1" d="M465.61 244c-3.313 0-6-2.686-6-6v-93.253c0-3.314 2.687-6 6-6s6 2.686 6 6v93.253c0 3.314-2.686 6-6 6z"/><circle class="st9" cx="108.102" cy="416.265" r="15"/><circle class="st9" cx="150.295" cy="446.94" r="15"/><circle class="st1" cx="347.555" cy="446.94" r="15"/><path class="st2" d="M111.931 300.956c-2.209 0-4-1.791-4-4v-183.416c0-2.209 1.791-4 4-4s4 1.791 4 4v3.284h36.448c2.209 0 4 1.791 4 4s-1.791 4-4 4h-36.448v18.486h36.448c2.209 0 4 1.791 4 4v26.486c0 2.209-1.791 4-4 4h-36.448v18.486h36.448c2.209 0 4 1.791 4 4v26.486c0 2.209-1.791 4-4 4h-36.448v18.486h36.448c2.209 0 4 1.791 4 4v26.486c0 2.209-1.791 4-4 4h-36.448v13.216c0 2.209-1.791 4-4 4zm4-25.216h32.448v-18.486h-32.448v18.486zm0-52.972h32.448v-18.486h-32.448v18.486zm0-52.972h32.448v-18.486h-32.448v18.486zm36.447 138.523c-2.209 0-4-1.791-4-4v-193.265c0-2.209 1.791-4 4-4s4 1.791 4 4v193.265c0 2.209-1.791 4-4 4zm0 176.133c-2.209 0-4-1.791-4-4v-13.216h-32.448v13.216c0 2.209-1.791 4-4 4s-4-1.791-4-4v-183.416c0-2.209 1.791-4 4-4s4 1.791 4 4v3.284h36.448c2.209 0 4 1.791 4 4v176.132c0 2.209-1.791 4-4 4zm-36.447-25.216h32.448v-18.486h-32.448v18.486zm0-26.486h32.448v-18.486h-32.448v18.486zm0-26.486h32.448v-18.486h-32.448v18.486zm0-26.487h32.448v-18.486h-32.448v18.486zm0-26.486h32.448v-18.486h-32.448v18.486zm0-26.486h32.448v-18.486h-32.448v18.486z"/></svg>