<svg xmlns="http://www.w3.org/2000/svg" viewBox="0 0 512 512">
    <style type="text/css">.st0{fill:#FFA730;} .st1{fill:#E58D23;} .st2{fill:#BF6C0D;} .st3{fill:#A56021;}
        .st4{fill:#FFD551;} .st5{fill:#FFF4C1;} .st6{fill:#FFC34C;} .st7{fill:#FFEA63;} .st8{fill:#FCE575;}
        .st9{fill:#FFB74B;} .st10{fill:#8C4C17;} .st11{fill:#F9BB32;} .st12{fill:#FF4B34;} .st13{fill:#FF9079;}
        .st14{fill:#FFDF74;} .st15{fill:#FF624B;} .st16{fill:#CCC033;} .st17{fill:#EACF32;} .st18{fill:#FFEACF;}
        .st19{fill:#99AF17;} .st20{fill:#FFD59A;} .st21{fill:#FCDA4F;} .st22{fill:#FCF9DE;} .st23{fill:#DB9C2E;}
    </style>
    <path class="st4"
          d="M415.151 486.237h-318.302v-44.3c0-52.467 42.533-95 95-95h128.301c52.467 0 95 42.533 95 95v44.3z"/>
    <path class="st6" d="M243.849 346.938h-52c-52.467 0-95 42.533-95 95v44.3h52v-44.3c0-52.467 42.533-95 95-95z"/>
    <path class="st0"
          d="M300.114 340.667v21.475c0 23.932-19.401 43.333-43.333 43.333h-1.562c-23.932 0-43.333-19.401-43.333-43.333v-21.475c0-2.209-1.791-4-4-4h-42.534c-9.941 0-18 8.059-18 18v131.373h220.314v-131.373c0-9.941-8.059-18-18-18h-45.552c-2.209 0-4 1.79-4 4z"/>
    <path class="st18"
          d="M256.781 405.474h-1.562c-23.932 0-43.333-19.401-43.333-43.333v-105.977h88.229v105.977c-.001 23.932-19.402 43.333-43.334 43.333z"/>
    <path class="st16" d="M161.084 336.667h37.365v149.373h-37.365zm153 0h37.365v149.373h-37.365z"/>
    <path class="st20"
          d="M248.886 362.141v-105.976h-37v105.977c0 23.932 19.401 43.333 43.333 43.333h1.562c6.315 0 12.308-1.362 17.719-3.791-15.095-6.775-25.614-21.926-25.614-39.543z"/>
    <path class="st10"
          d="M169.786 233.038h34.634v-94.014c0-11.046-8.954-20-20-20h-14.634c-11.046 0-20 8.954-20 20v74.014c0 11.045 8.955 20 20 20zm172.067-113.973h-13.913c-11.244 0-20.36 7.292-20.36 16.288v14.182c22.034 13.111 36.31 34.099 36.31 57.756v25.706c10.288-.817 18.324-7.76 18.324-16.205v-81.438c0-8.996-9.116-16.289-20.361-16.289z"/>
    <circle class="st18" cx="345.925" cy="208.579" r="29.085"/>
    <circle class="st20" cx="162.681" cy="208.579" r="29.085"/>
    <path class="st18"
          d="M257.592 312.125h-3.184c-48.785 0-88.333-39.548-88.333-88.333v-48.964c0-48.785 39.548-88.333 88.333-88.333h3.184c48.785 0 88.333 39.548 88.333 88.333v48.964c0 48.785-39.548 88.333-88.333 88.333z"/>
    <path class="st20"
          d="M206.075 223.792v-48.964c0-42.472 29.977-77.937 69.925-86.407-5.938-1.259-12.095-1.927-18.408-1.927h-3.184c-48.785 0-88.333 39.548-88.333 88.333v48.964c0 48.785 39.548 88.333 88.333 88.333h3.184c6.313 0 12.47-.667 18.408-1.927-39.949-8.468-69.925-43.934-69.925-86.405z"/>
    <path class="st4"
          d="M361.004 173.416c2.373-9.122 3.644-18.702 3.644-28.587 0-61.308-48.644-111.009-108.648-111.009s-108.648 49.7-108.648 111.009c0 9.885 1.271 19.465 3.644 28.587h210.008z"/>
    <path class="st6"
          d="M276.36 35.775c-6.596-1.278-13.4-1.955-20.36-1.955-60.005 0-108.648 49.7-108.648 111.009 0 9.885 1.271 19.465 3.644 28.587h40.721c-2.373-9.122-3.644-18.702-3.644-28.587 0-54.197 38.016-99.315 88.287-109.054zm-20.36-1.955c-16.731 0-32.578 3.868-46.734 10.771-1.806 1.251-3.596 2.536-5.347 3.895l-.001.001c-4.3 3.337-5.144 9.499-1.9 13.869l74.233 100.014 64.678-86.768c-19.908-25.464-50.551-41.782-84.929-41.782z"/>
    <path class="st4"
          d="M181.658 64.464c-3.244-4.37-2.4-10.532 1.9-13.869l.001-.001c20.932-16.244 45.95-24.831 72.35-24.831 26.488 0 51.574 8.639 72.546 24.984 4.293 3.346 5.124 9.509 1.872 13.873l-74.436 99.858-74.233-100.014z"/>
    <path class="st6"
          d="M214.098 50.595l.001-.001c16.408-12.734 35.333-20.736 55.461-23.611l-9.146-1.125c-1.497-.057-2.998-.094-4.505-.094-26.4 0-51.418 8.587-72.35 24.831l-.001.001c-4.3 3.337-5.144 9.499-1.9 13.869l20.554 27.692s10.818-15.715 15.205-20.661l-5.218-7.031c-3.245-4.372-2.4-10.534 1.899-13.87z"/>
    <path class="st4"
          d="M372.907 173.416h-233.814c-6.627 0-12-5.373-12-12v-14.334c0-6.627 5.373-12 12-12h233.814c6.627 0 12 5.373 12 12v14.334c0 6.628-5.373 12-12 12z"/>
    <path class="st6"
          d="M190.21 153.056c-6.747 0-12.216-5.469-12.216-12.216v-5.757h-38.685c-6.747 0-12.216 5.47-12.216 12.216v13.901c0 6.747 5.469 12.216 12.216 12.216h233.381c6.747 0 12.216-5.469 12.216-12.216v-8.144h-194.696z"/>
    <path class="st1" d="M195.352 336.667h-30c-9.941 0-18 8.059-18 18v131.373h30v-131.373c0-9.942 8.059-18 18-18z"/>
    <path class="st16" d="M314.084 336.667h37.365v149.373h-37.365z"/>
    <path class="st19"
          d="M165.35 336.667c-1.473 0-2.896.197-4.266.531v148.842h16.268v-131.373c0-9.94 8.057-17.999 17.998-18h-30zm148.734 0h18v149.373h-18z"/>
    <path class="st14"
          d="M402.341 481.334c-.283 0-.568-.02-.856-.061-3.28-.469-5.56-3.508-5.091-6.788 7.027-49.191-8.942-57.546-9.104-57.625l.217.091 4.322-11.194c2.571.993 24.876 11.404 16.444 70.426-.428 2.991-2.995 5.151-5.932 5.151zm-84.191-412.965c-1.386 0-2.778-.477-3.911-1.452-17.973-15.468-35.772-16.663-43.373-17.173-2.465-.166-3.953-.265-5.344-.767-3.116-1.125-4.73-4.564-3.605-7.681 1.084-3.002 4.314-4.609 7.332-3.72.441.062 1.532.135 2.421.195 8.795.59 29.392 1.973 50.397 20.051 2.512 2.161 2.795 5.95.634 8.461-1.186 1.379-2.864 2.086-4.551 2.086zm-48.771-30.754l.22.074-.22-.074zm82.061 96.318c-3.034 0-5.638-2.293-5.96-5.378-2.177-20.868-7.895-26.719-7.95-26.758-2.73-1.877-3.423-5.612-1.547-8.343 1.878-2.73 5.612-3.424 8.344-1.547 1.689 1.161 10.264 8.327 13.089 35.402.344 3.296-2.05 6.246-5.345 6.59-.212.023-.423.034-.631.034z"/>
    <circle class="st6" cx="221.037" cy="120.547" r="15"/>
    <circle class="st1" cx="224.623" cy="433.541" r="15"/>
</svg>
