<?xml version="1.0" encoding="utf-8"?>
<!-- Generator: Adobe Illustrator 22.1.0, SVG Export Plug-In . SVG Version: 6.00 Build 0)  -->
<svg xmlns="http://www.w3.org/2000/svg" xmlns:xlink="http://www.w3.org/1999/xlink" version="1.1" id="Layer_1" x="0px"
     y="0px" viewBox="0 0 512 512" style="enable-background:new 0 0 512 512;" xml:space="preserve">
<style type="text/css">
	.st0{fill:#FFA730;}
	.st1{fill:#E58D23;}
	.st2{fill:#BF6C0D;}
	.st3{fill:#A56021;}
	.st4{fill:#FFD551;}
	.st5{fill:#FFF4C1;}
	.st6{fill:#FFC34C;}
	.st7{fill:#FFEA63;}
	.st8{fill:#FCE575;}
	.st9{fill:#FFB74B;}
	.st10{fill:#8C4C17;}
	.st11{fill:#F9BB32;}
	.st12{fill:#FF4B34;}
	.st13{fill:#FF9079;}
	.st14{fill:#FFDF74;}
	.st15{fill:#FF624B;}
	.st16{fill:#CCC033;}
	.st17{fill:#EACF32;}
	.st18{fill:#FFEACF;}
	.st19{fill:#99AF17;}
	.st20{fill:#FFD59A;}
	.st21{fill:#FCDA4F;}
	.st22{fill:#FCF9DE;}
	.st23{fill:#DB9C2E;}
</style>
    <g>
	<g>
		<g>
			<path class="st8"
                  d="M264.15,212.107c0,0,0.087-31.392-29.27-57.995c-1.488-1.348-3.753-1.348-5.241,0     c-29.357,26.603-29.27,57.995-29.27,57.995l0.095,0.007c-0.056,0.774-0.095,1.553-0.095,2.342c0,17.613,14.278,31.89,31.89,31.89     c17.613,0,31.89-14.278,31.89-31.89c0-0.788-0.039-1.568-0.095-2.342L264.15,212.107z"/>
		</g>
	</g>
        <g>
		<g>
			<path class="st8"
                  d="M342.692,360.023c0,0,0.087-31.392-29.27-57.995c-1.488-1.348-3.753-1.348-5.241,0     c-29.357,26.603-29.27,57.995-29.27,57.995l0.095,0.007c-0.056,0.774-0.095,1.553-0.095,2.342c0,17.613,14.278,31.89,31.89,31.89     c17.613,0,31.89-14.278,31.89-31.89c0-0.788-0.039-1.568-0.095-2.342L342.692,360.023z"/>
		</g>
	</g>
        <g>
		<g>
			<path class="st8"
                  d="M184.684,361.732c0,0,0.087-31.392-29.27-57.995c-1.488-1.348-3.753-1.348-5.241,0     c-29.357,26.603-29.27,57.995-29.27,57.995l0.095,0.007c-0.056,0.774-0.095,1.553-0.095,2.342c0,17.613,14.278,31.89,31.89,31.89     c17.613,0,31.89-14.278,31.89-31.89c0-0.788-0.039-1.568-0.095-2.342L184.684,361.732z"/>
		</g>
	</g>
        <g>
		<g>
			<path class="st21"
                  d="M226.953,214.456c0-0.788,0.039-1.568,0.095-2.342l-0.095-0.007c0,0-0.046-23.209,18.599-46.626     c-3.039-3.817-6.557-7.64-10.671-11.368c-1.488-1.348-3.753-1.348-5.241,0c-29.357,26.603-29.27,57.995-29.27,57.995l0.095,0.007     c-0.056,0.774-0.095,1.553-0.095,2.342c0,17.612,14.278,31.89,31.89,31.89c4.745,0,9.244-1.045,13.292-2.903     C234.578,238.403,226.953,227.323,226.953,214.456z"/>
		</g>
	</g>
        <g>
		<g>
			<path class="st21"
                  d="M305.494,362.372c0-0.788,0.039-1.567,0.095-2.342l-0.095-0.006c0,0-0.046-23.209,18.599-46.628     c-3.039-3.817-6.557-7.64-10.671-11.367c-1.488-1.349-3.753-1.349-5.241,0c-29.357,26.603-29.27,57.995-29.27,57.995l0.095,0.006     c-0.056,0.775-0.095,1.553-0.095,2.342c0,17.613,14.278,31.89,31.89,31.89c4.745,0,9.244-1.044,13.292-2.903     C313.119,386.318,305.494,375.24,305.494,362.372z"/>
		</g>
	</g>
        <g>
		<g>
			<path class="st21"
                  d="M147.486,364.081c0-0.789,0.038-1.568,0.095-2.342l-0.095-0.007c0,0-0.046-23.209,18.599-46.626     c-3.039-3.817-6.557-7.64-10.671-11.368c-1.488-1.348-3.753-1.348-5.241,0c-29.357,26.603-29.27,57.995-29.27,57.995l0.095,0.007     c-0.056,0.774-0.095,1.552-0.095,2.342c0,17.612,14.278,31.89,31.89,31.89c4.745,0,9.245-1.045,13.292-2.903     C155.111,388.028,147.486,376.948,147.486,364.081z"/>
		</g>
	</g>
        <g>
		<g>
			<path class="st6"
                  d="M449.084,423.937l-52.241-33.059v-15.504v-52.036v-15.539l37.766-24.28c2.229-1.433,3.444-3.848,3.445-6.313     c0-1.39-0.385-2.796-1.192-4.051c-2.24-3.485-6.881-4.493-10.364-2.253l-37.143,23.879l-71.054-45.954V154.8l75.115-48.58     c2.137-1.382,3.427-3.753,3.427-6.298v-71.67c0-4.143-3.357-7.5-7.5-7.5s-7.5,3.357-7.5,7.5v67.589l-71.028,45.937L239.76,95.524     V28.252c0-4.143-3.357-7.5-7.5-7.5s-7.5,3.357-7.5,7.5v67.272l-71.041,46.245l-74.45-48.464     c-3.471-2.259-8.116-1.277-10.377,2.193c-2.26,3.472-1.278,8.117,2.193,10.377l75.134,48.909v94.057l-75.134,48.909     c-3.472,2.26-4.453,6.905-2.193,10.377c2.259,3.47,6.905,4.452,10.377,2.193l74.45-48.464l56.504,36.782l14.537,9.463v15.235     v52.036v15.236l-75.133,48.909c-3.472,2.26-4.453,6.905-2.193,10.377c1.438,2.208,3.84,3.409,6.292,3.409     c1.402,0,2.822-0.394,4.085-1.216l74.449-48.464l70.915,46.162l-1.04,33.729c-0.128,4.141,3.125,7.601,7.265,7.728     c0.079,0.003,0.157,0.004,0.235,0.004c4.035,0,7.367-3.208,7.492-7.269l1.049-34.014l71.211-46.055l51.676,32.701     c1.245,0.787,2.632,1.163,4.004,1.163c2.485,0,4.917-1.235,6.345-3.49C453.626,430.785,452.584,426.151,449.084,423.937z      M232.26,108.54l71.041,46.244v94.058l-71.041,46.245l-71.041-46.245v-94.057L232.26,108.54z M381.843,390.927l-71.028,45.937     L239.76,390.61v-15.236v-52.036v-15.235l12.021-7.825l59.033-38.429l71.028,45.937v15.553v52.036V390.927z"/>
		</g>
	</g>
        <g>
		<g>
			<g>
				<path class="st2"
                      d="M47.607,206.707h-7.5c-3.313,0-6-2.687-6-6s2.687-6,6-6h7.5c3.313,0,6,2.687,6,6      S50.921,206.707,47.607,206.707z"/>
			</g>
		</g>
            <g>
			<g>
				<path class="st2"
                      d="M80.216,206.707h-9.782c-3.313,0-6-2.687-6-6s2.687-6,6-6h9.782c3.313,0,6,2.687,6,6      S83.529,206.707,80.216,206.707z"/>
			</g>
		</g>
            <g>
			<g>
				<path class="st2"
                      d="M110.541,206.707h-7.5c-3.313,0-6-2.687-6-6s2.687-6,6-6h7.5c3.313,0,6,2.687,6,6      S113.854,206.707,110.541,206.707z"/>
			</g>
		</g>
	</g>
        <g>
		<g>
			<g>
				<path class="st2"
                      d="M366.606,206.707h-7.5c-3.313,0-6-2.687-6-6s2.687-6,6-6h7.5c3.313,0,6,2.687,6,6      S369.92,206.707,366.606,206.707z"/>
			</g>
		</g>
            <g>
			<g>
				<path class="st2"
                      d="M399.214,206.707h-9.782c-3.313,0-6-2.687-6-6s2.687-6,6-6h9.782c3.313,0,6,2.687,6,6      S402.527,206.707,399.214,206.707z"/>
			</g>
		</g>
            <g>
			<g>
				<path class="st2"
                      d="M429.539,206.707h-7.5c-3.313,0-6-2.687-6-6s2.687-6,6-6h7.5c3.313,0,6,2.687,6,6      S432.853,206.707,429.539,206.707z"/>
			</g>
		</g>
	</g>
        <g>
		<g>
			<circle class="st21" cx="247.15" cy="214.456" r="15"/>
		</g>
	</g>
        <g>
		<g>
			<path class="st5"
                  d="M166.088,387.342c-1.725,0-3.437-0.74-4.624-2.172c-2.113-2.552-1.758-6.334,0.794-8.448     c11.728-9.714,5.605-18.937,5.339-19.325c-1.876-2.731-1.182-6.467,1.55-8.342c2.732-1.875,6.467-1.183,8.343,1.549     c4.403,6.412,8.486,22.054-7.577,35.359C168.793,386.89,167.437,387.342,166.088,387.342z"/>
		</g>
	</g>
        <g>
		<g>
			<path class="st5"
                  d="M324.088,386.342c-1.725,0-3.437-0.74-4.624-2.172c-2.113-2.552-1.758-6.334,0.794-8.448     c11.728-9.714,5.605-18.937,5.339-19.325c-1.876-2.731-1.182-6.467,1.55-8.342c2.732-1.876,6.467-1.183,8.343,1.549     c4.403,6.412,8.486,22.054-7.577,35.359C326.793,385.89,325.437,386.342,324.088,386.342z"/>
		</g>
	</g>
        <g>
		<g>
			<g>
				<path class="st0"
                      d="M157.434,449.896c-2.26-3.472-1.278-8.117,2.193-10.377l75.133-48.909v-15.236v-52.036v-15.235      l-14.537-9.463l-56.504-36.782l-5,3.255l51.504,33.527l14.537,9.463v15.235v52.036v15.236l-75.133,48.909      c-3.472,2.26-4.453,6.905-2.193,10.377c1.438,2.208,3.84,3.409,6.292,3.409c1.402,0,2.822-0.394,4.085-1.216l0.981-0.639      C158.282,451.007,157.821,450.491,157.434,449.896z"/>
			</g>
		</g>
            <g>
			<g>
				<path class="st0"
                      d="M163.719,141.77l71.041-46.245V28.252c0-2.219,0.969-4.206,2.5-5.579c-1.328-1.19-3.076-1.921-5-1.921      c-4.143,0-7.5,3.357-7.5,7.5v67.272l-66.041,42.99L163.719,141.77z"/>
			</g>
		</g>
            <g>
			<g>
				<path class="st0"
                      d="M312.135,483.517l1.04-33.729l-70.915-46.162l-5,3.255l65.915,42.907l-1.04,33.729      c-0.128,4.141,3.125,7.601,7.265,7.728c0.079,0.003,0.157,0.004,0.235,0.004c1.913,0,3.662-0.727,4.992-1.918      C313.039,487.905,312.064,485.817,312.135,483.517z"/>
			</g>
		</g>
            <g>
			<g>
				<path class="st0"
                      d="M78.892,308.128c-2.26-3.472-1.278-8.117,2.193-10.377l75.134-48.909v-94.057l-75.134-48.909      c-3.472-2.26-4.453-6.905-2.193-10.377c0.387-0.595,0.849-1.11,1.358-1.555l-0.981-0.639c-3.471-2.259-8.116-1.277-10.377,2.193      c-2.26,3.472-1.278,8.117,2.193,10.377l75.134,48.909v94.057l-75.134,48.909c-3.472,2.26-4.453,6.905-2.193,10.377      c2.259,3.47,6.905,4.452,10.377,2.193l0.981-0.639C79.74,309.238,79.279,308.723,78.892,308.128z"/>
			</g>
		</g>
	</g>
        <g>
		<g>
			<g>
				<circle class="st15" cx="153.718" cy="445.804" r="23.474"/>
			</g>
		</g>
            <g>
			<g>
				<path class="st12"
                      d="M141.911,454.138c0-12.964,10.51-23.474,23.474-23.474c2.497,0,4.901,0.393,7.158,1.115      c-4.28-5.735-11.118-9.449-18.824-9.449c-12.964,0-23.474,10.51-23.474,23.474c0,10.468,6.853,19.332,16.316,22.359      C143.641,464.25,141.911,459.396,141.911,454.138z"/>
			</g>
		</g>
	</g>
        <g>
		<g>
			<path class="st13"
                  d="M154.905,463.594c-1.342,0-2.271-0.141-2.518-0.183l2.012-11.83l-0.097-0.016     c3.401,0.454,5.433-1.385,6.056-5.458c0.5-3.275,3.567-5.527,6.837-5.024c3.276,0.501,5.525,3.562,5.024,6.838     c-1.054,6.894-4.412,10.605-7.044,12.505C161.492,463.085,157.454,463.594,154.905,463.594z"/>
		</g>
	</g>
        <g>
		<g>
			<g>
				<circle class="st15" cx="448.418" cy="263.776" r="23.474"/>
			</g>
		</g>
            <g>
			<g>
				<path class="st12"
                      d="M436.611,272.109c0-12.964,10.51-23.474,23.474-23.474c2.497,0,4.901,0.393,7.158,1.115      c-4.28-5.735-11.118-9.449-18.824-9.449c-12.964,0-23.474,10.51-23.474,23.474c0,10.468,6.853,19.332,16.316,22.359      C438.341,282.221,436.611,277.367,436.611,272.109z"/>
			</g>
		</g>
	</g>
        <g>
		<g>
			<path class="st13"
                  d="M451.93,277.28c-1.342,0-2.271-0.141-2.518-0.183l2.012-11.83l-0.097-0.016     c3.404,0.451,5.434-1.384,6.057-5.458c0.501-3.276,3.566-5.523,6.838-5.024c3.275,0.501,5.524,3.563,5.023,6.838     c-1.054,6.893-4.413,10.605-7.045,12.505C458.517,276.771,454.479,277.28,451.93,277.28z"/>
		</g>
	</g>
        <g>
		<g>
			<g>
				<circle class="st15" cx="75.177" cy="99.07" r="23.474"/>
			</g>
		</g>
            <g>
			<g>
				<path class="st12"
                      d="M63.37,107.404c0-12.964,10.51-23.474,23.474-23.474c2.497,0,4.901,0.393,7.158,1.115      c-4.28-5.735-11.118-9.449-18.824-9.449c-12.964,0-23.474,10.51-23.474,23.474c0,10.468,6.853,19.332,16.316,22.359      C65.099,117.516,63.37,112.662,63.37,107.404z"/>
			</g>
		</g>
	</g>
        <g>
		<g>
			<path class="st13"
                  d="M76.115,116.49c-1.343,0-2.271-0.141-2.52-0.183l2.014-11.83l-0.098-0.015     c3.392,0.45,5.433-1.384,6.056-5.458c0.5-3.276,3.568-5.523,6.837-5.024c3.276,0.501,5.525,3.562,5.024,6.838     c-1.054,6.894-4.412,10.605-7.044,12.505C82.702,115.982,78.664,116.49,76.115,116.49z"/>
		</g>
	</g>
</g>
</svg>
