<svg xmlns="http://www.w3.org/2000/svg" viewBox="0 0 512 512">
    <style type="text/css">.st0{fill:#FFA730;} .st1{fill:#E58D23;} .st2{fill:#BF6C0D;} .st3{fill:#A56021;}
        .st4{fill:#FFD551;} .st5{fill:#FFF4C1;} .st6{fill:#FFC34C;} .st7{fill:#FFEA63;} .st8{fill:#FCE575;}
        .st9{fill:#FFB74B;} .st10{fill:#8C4C17;} .st11{fill:#F9BB32;} .st12{fill:#FF4B34;} .st13{fill:#FF9079;}
        .st14{fill:#FFDF74;} .st15{fill:#FF624B;} .st16{fill:#CCC033;} .st17{fill:#EACF32;} .st18{fill:#FFEACF;}
        .st19{fill:#99AF17;} .st20{fill:#FFD59A;} .st21{fill:#FCDA4F;} .st22{fill:#FCF9DE;} .st23{fill:#DB9C2E;}
    </style>
    <path class="st1" d="M96.823 250.916h280.064v43.769h-280.064z"/>
    <path class="st2" d="M194.821 250.916h-97.998v43.77h100.741z"/>
    <circle class="st3" cx="369.188" cy="362.206" r="110.719"/>
    <path class="st10"
          d="M308.469 362.206c0-52.551 36.611-96.551 85.719-107.885-8.034-1.854-16.403-2.834-25-2.834-61.148 0-110.719 49.57-110.719 110.719s49.571 110.719 110.719 110.719c8.597 0 16.966-.979 25-2.834-49.108-11.334-85.719-55.334-85.719-107.885zM361.131 321.757c-22.304 0-40.449 18.145-40.449 40.449s18.145 40.449 40.449 40.449 40.449-18.145 40.449-40.449-18.145-40.449-40.449-40.449zm0 68.641c-15.545 0-28.192-12.647-28.192-28.192s12.647-28.192 28.192-28.192 28.192 12.647 28.192 28.192-12.647 28.192-28.192 28.192z"/>
    <path class="st11"
          d="M454.263 343.384h-19.987l-.154-.492h.004l-.175-.547-.264-.825-.285-.837-.263-.754-.315-.851-.28-.74-.326-.818-.312-.765-.331-.77-.348-.793-.339-.736-.377-.803-.361-.732-.389-.776-.412-.785-.259-.494-.003.003-.243-.455 14.022-14.243c2.431-2.469 2.4-6.442-.069-8.873l-17.884-17.607c-2.469-2.431-6.442-2.4-8.873.069l-14.022 14.243c-.158-.084-1.03-.533-1.308-.673-.22-.111-1.239-.607-1.529-.744-.226-.107-1.247-.572-1.532-.698-.245-.108-5.285-2.055-5.589-2.157l-.704-.233-.889-.277-.514-.16v-19.987c0-3.263-2.491-5.942-5.675-6.244-.419-.085-.852-.129-1.297-.125l-12.202.095h-12.196c-.444 0-.877.048-1.296.136-3.182.326-5.652 3.025-5.626 6.288l.156 19.987-.515.165-.876.28-.808.275-.793.277-.829.306-.771.292-.815.326-.774.317-.787.338-.786.346-.766.353-.783.37-.767.378-.75.379-.803.422-.403.212-14.133-14.133c-2.307-2.307-5.963-2.44-8.428-.402-.356.237-.694.512-1.006.829l-8.557 8.692-8.628 8.628c-.314.314-.587.654-.821 1.012-2.018 2.48-1.857 6.135.468 8.425l14.243 14.022.044-.083-.044.083-.263.511-.413.803-.34.691-.411.853-.32.696-.384.853-.317.741-.344.82-.319.804-.302.774-.318.865-.265.736-.302.894-.243.734-.264.856-.2.647.06-.215h-19.983c-3.465 0-6.274 2.809-6.274 6.274v25.096c0 3.465 2.809 6.274 6.274 6.274h19.987l-.027-.09.027.09.154.492h-.004l.174.545.265.827.285.836.263.755.314.849.28.742.326.816.312.766.329.767.35.797.338.734.378.804.361.732.389.777.411.783.26.495.003-.003.243.455-14.022 14.243c-2.431 2.469-2.4 6.442.069 8.873l17.884 17.607c2.469 2.431 6.442 2.4 8.873-.069 0 0 12.656-14.969 14.022-14.243l.479.247.828.426.666.328.862.416.686.316.847.382.739.318.804.337.807.323.751.292.876.324.703.253.913.311.699.232.893.278.512.16.493.147-.493-.147v19.987c0 3.263 2.491 5.942 5.675 6.244.419.085.852.129 1.297.125l12.202-.095h12.196c.444 0 .877-.048 1.296-.136 3.182-.326 5.652-3.025 5.626-6.288l-.156-19.987.515-.165.876-.28.807-.275.795-.277.827-.306.773-.293.81-.324.781-.32.778-.334.796-.351.756-.349.793-.374.757-.373.76-.384.796-.418.407-.214 14.133 14.133c2.307 2.307 5.963 2.44 8.428.402.356-.236.694-.511 1.006-.828l8.556-8.691 8.629-8.629c.314-.314.587-.654.821-1.013 2.018-2.48 1.857-6.135-.468-8.424l-14.243-14.022-.242.455-.002-.001.24-.456.003.003.263-.511.413-.803.34-.691.411-.853.32-.696.385-.853.316-.737.347-.826.317-.798.303-.779.317-.863.266-.738.301-.893.244-.735.264-.856.2-.647-.06.215h19.983c3.465 0 6.274-2.809 6.274-6.274v-25.096c-.001-3.465-2.81-6.274-6.275-6.274zm-44.294 30.098c-.152.526-.318 1.048-.491 1.568l-.158.465c-.139.402-.288.801-.441 1.199l-.325.822-.345.814c-.17.39-.344.779-.526 1.163l-.215.444c-.241.491-.488.979-.748 1.459l-.064.118c-4.276 7.828-11.068 14.087-19.276 17.703l-.623.276-.632.25c-8.337 3.314-17.564 3.762-26.143 1.317l-.125-.036c-.525-.152-1.048-.318-1.568-.491l-.466-.158c-.401-.139-.8-.288-1.198-.44l-.824-.325-.812-.345c-.39-.171-.779-.344-1.163-.526l-.445-.215c-.492-.241-.98-.488-1.46-.749l-.117-.064c-7.829-4.277-14.089-11.069-17.705-19.279l-.275-.62-.251-.634c-3.313-8.336-3.761-17.562-1.316-26.141l.036-.125c.152-.525.318-1.048.491-1.568l.158-.466c.139-.402.288-.8.441-1.198l.325-.824.345-.812c.171-.391.344-.78.527-1.164l.214-.443c.241-.492.489-.98.749-1.46l.064-.117c4.276-7.829 11.069-14.089 19.279-17.705l.621-.275.635-.251c8.336-3.313 17.561-3.761 26.139-1.316l.128.037c.525.151 1.046.317 1.565.49l.469.159c.401.139.799.288 1.197.44l.822.325.814.345c.391.171.779.344 1.163.527l.442.214c.492.241.981.489 1.462.75l.114.062c7.829 4.276 14.089 11.068 17.705 19.278l.276.623.25.632c3.314 8.337 3.762 17.563 1.317 26.143l-.036.124z"/>
    <path class="st1"
          d="M371.131 321.757c-22.304 0-40.449 18.145-40.449 40.449s18.145 40.449 40.449 40.449 40.449-18.145 40.449-40.449-18.145-40.449-40.449-40.449zm0 68.641c-15.545 0-28.192-12.647-28.192-28.192s12.647-28.192 28.192-28.192 28.192 12.647 28.192 28.192-12.647 28.192-28.192 28.192z"/>
    <path class="st4"
          d="M420.711 353.562c-2.08 0-3.836-1.609-3.986-3.716-1.615-22.692-22.046-28.84-22.252-28.899-2.122-.612-3.347-2.829-2.735-4.951.612-2.124 2.829-3.35 4.952-2.735.26.075 26.007 7.817 28.016 36.018.156 2.204-1.503 4.117-3.706 4.274l-.289.009z"/>
    <path class="st23"
          d="M383.985 272.787c-.328-.051-.661-.084-1.004-.081l-12.202.095h11.449l1.757-.014zM369.434 451.582c-3.184-.302-5.675-2.981-5.675-6.244v-19.987l-.512-.16-.892-.278-.699-.231-.913-.311-.703-.253-.876-.324-.751-.293-.807-.322-.804-.337-.739-.318-.847-.382-.686-.316-.862-.416-.666-.328-.828-.426-.479-.246c-.451-.24-2.132 1.232-4.179 3.307l.199.077.876.324.703.253.913.311.699.231.892.278.512.16v19.987c0 3.263 2.491 5.942 5.675 6.244.419.085.852.129 1.297.125l10.445-.081-.293-.044zM324.867 393.998zM310.915 417.114c-2.469-2.431-2.5-6.403-.069-8.873l14.022-14.242-.243-.455-.003.003-.26-.495-.411-.783-.39-.777-.361-.732-.378-.804-.338-.734-.35-.797-.329-.767-.312-.766-.326-.816-.28-.742-.314-.849-.263-.755-.285-.836-.265-.827-.175-.545h.004l-.154-.492h-11.449l.154.492h-.004l.175.545.265.827.285.836.263.755.314.849.28.742.326.816.312.766.329.767.35.797.338.734.378.804.361.732.39.777.411.783.26.495.003-.003.243.455-14.022 14.242c-2.431 2.469-2.4 6.442.069 8.873l17.884 17.607c2.469 2.431 6.442 2.4 8.873-.069 0 0 .434-.513 1.146-1.34l-16.454-16.198zM351.24 304.247l.403-.212.803-.422.75-.379.767-.377.783-.37.766-.353.786-.346.787-.338.774-.317.815-.325.771-.292.829-.306.793-.277.808-.275.876-.28.515-.165-.156-19.987c-.025-3.263 2.445-5.961 5.626-6.288.418-.088.851-.136 1.296-.136h-11.449c-.444 0-.877.047-1.296.136-3.182.326-5.652 3.025-5.626 6.288l.156 19.987-.515.165-.876.28-.808.275-.793.277-.829.306-.353.134 3.597 3.597zM312.929 331.319l.044-.083-.044.083-.263.511-.413.803-.34.691-.411.853-.32.696-.384.853-.317.741-.344.82-.319.804-.302.774-.318.865-.265.736-.302.895-.243.734-.264.856-.133.432h11.443l-.06.216.2-.647.264-.856.243-.734.302-.895.265-.736.318-.865.302-.774.319-.804.344-.82.317-.741.384-.853.32-.696.411-.853.34-.691.413-.803.263-.511-14.243-14.022c-2.325-2.289-2.486-5.944-.468-8.425.234-.358.506-.698.821-1.012l8.628-8.628 7.769-7.891-1.227-1.227c-2.307-2.307-5.963-2.44-8.428-.403-.356.237-.694.512-1.006.829l-8.557 8.692-8.628 8.628c-.314.314-.587.655-.821 1.012-2.018 2.481-1.857 6.135.468 8.425l14.242 14.021zM324.378 331.319l.044-.083-.044.083zM293.175 374.754v-25.096c0-3.465 2.809-6.274 6.274-6.274h-11.449c-3.465 0-6.274 2.809-6.274 6.274v25.096c0 3.465 2.809 6.274 6.274 6.274h11.449c-3.465.001-6.274-2.809-6.274-6.274zM319.436 381.029l-.027-.09.027.09z"/>
    <path class="st11"
          d="M176.644 472.169h-133.24c-6.525 0-11.696-5.506-11.288-12.018l25.074-400.152h105.668l25.074 400.153c.408 6.512-4.763 12.017-11.288 12.017z"/>
    <path class="st23"
          d="M82.116 460.151l25.074-400.152h-50l-25.074 400.152c-.408 6.513 4.764 12.018 11.288 12.018h50c-6.524 0-11.696-5.505-11.288-12.018z"/>
    <path class="st2"
          d="M176.853 84.88h-133.657c-4.418 0-8-3.582-8-8v-29.805c0-4.418 3.582-8 8-8h133.657c4.418 0 8 3.582 8 8v29.805c0 4.419-3.582 8-8 8z"/>
    <path class="st3"
          d="M85.196 76.881v-29.806c0-4.419 3.582-8 8-8h-50c-4.418 0-8 3.581-8 8v29.806c0 4.418 3.582 8 8 8h50c-4.419 0-8-3.582-8-8z"/>
    <circle class="st23" cx="107.19" cy="436.707" r="15"/>
    <circle class="st23" cx="132.193" cy="111.325" r="15"/>
    <path class="st4"
          d="M152.677 240.75c-3.143 0-5.783-2.445-5.982-5.625l-1.702-27.163c-.207-3.308 2.306-6.156 5.613-6.364 3.286-.209 6.156 2.306 6.363 5.613l1.702 27.163c.207 3.308-2.306 6.156-5.613 6.364l-.381.012zM164.847 422.523c-3.148 0-5.791-2.453-5.983-5.638l-9.65-159.529c-.2-3.308 2.319-6.151 5.627-6.352 3.282-.202 6.151 2.318 6.352 5.627l9.65 159.529c.2 3.308-2.319 6.151-5.627 6.352l-.369.011z"/>
</svg>
