<svg xmlns="http://www.w3.org/2000/svg" viewBox="0 0 45.52 45.52" enable-background="new 0 0 45.52 45.52">
    <path d="M45.028 13.98c.574-.619.322-1.683-.45-2.027-1.798-.8-1.061-3.459-2.564-3.318-1.724.161-2.99-1.104-2.828-2.828.161-1.724-1.104-2.99-2.828-2.828-1.724.161-.044-2.519-2.828-2.828 0 0-1.945-.751-2.13 1.111l-.029 7.258h-11.207c-11.038 0-19.986 8.948-19.986 19.986v17.014h16.876c11.114 0 20.124-9.01 20.124-20.124v-11.159l7.244.067c.256-.04.453-.16.606-.324z"
          fill="#698B9E"/>
    <path d="M21.951 39.899h-2c0-7.72-6.28-14-14-14v-2c8.822 0 16 7.177 16 16zM25.206 36.644h-2c0-7.72-6.28-14-14-14v-2c8.822 0 16 7.178 16 16zM28.315 33.534h-2c0-7.72-6.28-14-14-14v-2c8.822 0 16 7.178 16 16zM31.57 30.28h-2c0-7.72-6.28-14-14-14v-2c8.822 0 16 7.177 16 16z"
          fill="#5D7989"/>
    <path d="M14.824 9.263c-.394-1.98-1.211-4.133-2.77-6.285 0 0-8.224 4.078-4.851 10.331 2.185-1.865 4.775-3.257 7.621-4.046zM36.819 29.131c-.605 3.221-1.979 6.164-3.922 8.647 2.863.326 7.064.045 11.238-2.98 0 0-2.8-5.647-7.316-5.667z"
          fill="#546A79"/>
    <circle cx="5.951" cy="33.384" r="2" fill="#38454F"/>
</svg>
