<svg xmlns="http://www.w3.org/2000/svg" viewBox="0 0 512 512">
    <style type="text/css">.st0{fill:#FFA730;} .st1{fill:#E58D23;} .st2{fill:#BF6C0D;} .st3{fill:#A56021;}
        .st4{fill:#FFD551;} .st5{fill:#FFF4C1;} .st6{fill:#FFC34C;} .st7{fill:#FFEA63;} .st8{fill:#FCE575;}
        .st9{fill:#FFB74B;} .st10{fill:#8C4C17;} .st11{fill:#F9BB32;} .st12{fill:#FF4B34;} .st13{fill:#FF9079;}
        .st14{fill:#FFDF74;} .st15{fill:#FF624B;} .st16{fill:#CCC033;} .st17{fill:#EACF32;} .st18{fill:#FFEACF;}
        .st19{fill:#99AF17;} .st20{fill:#FFD59A;} .st21{fill:#FCDA4F;} .st22{fill:#FCF9DE;} .st23{fill:#DB9C2E;}
    </style>
    <path class="st3" d="M228.743 118.615h54.515v54.515h-54.515z"/>
    <path class="st2" d="M238.303 76.057h35.395v35.395h-35.395z"/>
    <path class="st10" d="M238.743 132.615h44.514v-14h-54.514v54.515h10z"/>
    <path class="st3" d="M248.303 90.057h25.394v-14h-35.394v35.395h10z"/>
    <path class="st6"
          d="M50 219.643v148h60v-128c0-19.33 15.67-35 35-35h225c19.33 0 35 15.67 35 35v128h60v-148c0-41.421-33.579-75-75-75h-265c-41.421 0-75 33.578-75 75z"/>
    <path class="st9"
          d="M80 238.643c0-41.421 33.579-75 75-75h265c8.379 0 16.427 1.395 23.951 3.93-13.639-14.129-32.762-22.93-53.951-22.93h-265c-41.421 0-75 33.579-75 75v148h30v-129z"/>
    <path class="st1"
          d="M282.047 82.464h-52.094c-2.209 0-4-1.791-4-4v-14.916c0-2.209 1.791-4 4-4h52.094c2.209 0 4 1.791 4 4v14.916c0 2.209-1.791 4-4 4z"/>
    <path class="st15"
          d="M318.27 59.548h-124.54c-7.334 0-13.28-5.946-13.28-13.28s5.946-13.28 13.28-13.28h124.54c7.334 0 13.28 5.946 13.28 13.28-.001 7.334-5.946 13.28-13.28 13.28z"/>
    <path class="st0"
          d="M292.634 125.91h-73.269c-2.209 0-4-1.791-4-4v-14.916c0-2.209 1.791-4 4-4h73.269c2.209 0 4 1.791 4 4v14.916c0 2.209-1.79 4-4 4z"/>
    <path class="st13"
          d="M182 221.976h-13c-4.418 0-8-3.582-8-8v-75.692c0-4.418 3.582-8 8-8h13c4.418 0 8 3.582 8 8v75.692c0 4.418-3.582 8-8 8zM346 221.976h-13c-4.418 0-8-3.582-8-8v-75.692c0-4.418 3.582-8 8-8h13c4.418 0 8 3.582 8 8v75.692c0 4.418-3.582 8-8 8zM117.5 385.643h-83c-4.418 0-8-3.582-8-8v-20c0-4.418 3.582-8 8-8h83c4.418 0 8 3.582 8 8v20c0 4.418-3.582 8-8 8zM477.5 386.643h-83c-4.418 0-8-3.582-8-8v-20c0-4.418 3.582-8 8-8h83c4.418 0 8 3.582 8 8v20c0 4.418-3.582 8-8 8z"/>
    <path class="st1"
          d="M298.5 213.815h-85c-2.209 0-4-1.791-4-4v-67.885c0-2.209 1.791-4 4-4h85c2.209 0 4 1.791 4 4v67.886c0 2.209-1.791 3.999-4 3.999z"/>
    <path class="st15"
          d="M178 213.976v-75.692c0-3.727 2.551-6.849 6-7.738-.64-.165-1.308-.262-2-.262h-13c-4.418 0-8 3.582-8 8v75.692c0 4.418 3.582 8 8 8h13c.692 0 1.36-.097 2-.262-3.449-.89-6-4.012-6-7.738zM342 213.976v-75.692c0-3.727 2.551-6.849 6-7.738-.64-.165-1.308-.262-2-.262h-13c-4.418 0-8 3.582-8 8v75.692c0 4.418 3.582 8 8 8h13c.692 0 1.36-.097 2-.262-3.449-.89-6-4.012-6-7.738zM53.5 377.643v-20c0-4.418 3.582-8 8-8h-27c-4.418 0-8 3.582-8 8v20c0 4.418 3.582 8 8 8h27c-4.418 0-8-3.582-8-8zM413.5 378.643v-20c0-4.418 3.582-8 8-8h-27c-4.418 0-8 3.582-8 8v20c0 4.418 3.582 8 8 8h27c-4.418 0-8-3.582-8-8z"/>
    <path class="st4"
          d="M444.5 250.94c-3.313 0-6-2.687-6-6v-15.913c0-3.313 2.687-6 6-6s6 2.687 6 6v15.913c0 3.314-2.687 6-6 6zM444.5 338.815c-3.313 0-6-2.687-6-6v-69.181c0-3.313 2.687-6 6-6s6 2.687 6 6v69.181c0 3.314-2.687 6-6 6z"/>
    <path class="st2"
          d="M229.5 160.93c0-2.209 1.791-4 4-4h69v-15c0-2.209-1.791-4-4-4h-85c-2.209 0-4 1.791-4 4v67.886c0 2.209 1.791 4 4 4h16v-52.886z"/>
    <path class="st1"
          d="M245.366 115.993c0-2.209 1.791-4 4-4h47.269v-5c0-2.209-1.791-4-4-4h-73.269c-2.209 0-4 1.791-4 4v14.917c0 2.209 1.791 4 4 4h26v-9.917z"/>
    <path class="st3"
          d="M241.953 72.548c0-2.209 1.791-4 4-4h40.094v-5c0-2.209-1.791-4-4-4h-52.094c-2.209 0-4 1.791-4 4v14.917c0 2.209 1.791 4 4 4h12v-9.917z"/>
    <path class="st0"
          d="M286.047 205.815c-3.313 0-6-2.687-6-6v-34.371c0-3.313 2.687-6 6-6s6 2.687 6 6v34.371c0 3.314-2.687 6-6 6z"/>
    <path class="st12"
          d="M220.451 46.268c0-7.334 5.946-13.28 13.28-13.28h-40c-7.334 0-13.28 5.945-13.28 13.28 0 7.334 5.946 13.28 13.28 13.28h40c-7.335 0-13.28-5.946-13.28-13.28z"/>
    <circle class="st15" cx="76" cy="368.643" r="15"/>
    <circle class="st9" cx="403.5" cy="185.548" r="15"/>
    <path class="st13"
          d="M314 52.268h-40.303c-3.313 0-6-2.687-6-6s2.687-6 6-6h40.303c3.313 0 6 2.687 6 6s-2.687 6-6 6z"/>
    <path class="st1"
          d="M439.585 464.066c-6.781 6.781-17.775 6.781-24.556 0l-125.67-125.67 24.556-24.556 125.67 125.67c6.781 6.781 6.781 17.775 0 24.556z"/>
    <path class="st2"
          d="M427.74 451.355l-125.67-125.67-12.711 12.711 125.67 125.67c6.781 6.781 17.775 6.781 24.556 0 2.326-2.326 3.854-5.149 4.584-8.127-5.702 1.398-11.974-.13-16.429-4.584z"/>
    <path class="st3"
          d="M357.963 421.124l49.641 49.641c10.561 10.561 27.764 11.132 38.571.823 11.133-10.619 11.29-28.321.471-39.14l-50.004-50.004c-2.6-2.6-6.816-2.6-9.416 0l-29.264 29.264c-2.599 2.6-2.599 6.816.001 9.416z"/>
    <path class="st10"
          d="M426.436 451.934l-49.642-49.642c-2.6-2.6-2.6-6.816 0-9.416l-18.832 18.832c-2.6 2.6-2.6 6.816 0 9.416l49.642 49.642c10.561 10.561 27.764 11.132 38.571.823 3.692-3.521 6.169-7.823 7.447-12.393-9.359 2.573-19.867.057-27.186-7.262z"/>
    <circle class="st5" cx="256.987" cy="279.066" r="68.372"/>
    <path class="st2"
          d="M445.492 460.713h-.053c-3.313-.028-5.977-2.738-5.948-6.052.076-8.85-3.839-10.929-4.005-11.013l.244.104 4.313-11.199c4.309 1.66 11.569 8.205 11.449 22.212-.03 3.296-2.711 5.948-6 5.948zM426.361 433.287c-1.536 0-3.071-.586-4.243-1.758l-29.785-29.785c-2.343-2.343-2.343-6.142 0-8.484 2.343-2.344 6.143-2.344 8.485 0l29.785 29.785c2.343 2.343 2.343 6.142 0 8.484-1.17 1.172-2.706 1.758-4.242 1.758z"/>
    <path class="st15"
          d="M321.811 214.242c-17.315-17.315-40.336-26.851-64.823-26.851s-47.509 9.536-64.824 26.851c-35.744 35.744-35.744 93.904 0 129.648 17.315 17.315 40.337 26.851 64.824 26.851s47.509-9.536 64.823-26.851c17.316-17.315 26.851-40.337 26.851-64.824s-9.536-47.509-26.851-64.824zm-16.478 113.17c-26.658 26.658-70.034 26.658-96.692 0-26.658-26.658-26.658-70.034 0-96.692 26.658-26.658 70.034-26.658 96.692 0 26.658 26.658 26.659 70.034 0 96.692z"/>
    <path class="st12"
          d="M331.226 315.642c-17.315 17.315-40.336 26.851-64.823 26.851-24.487 0-47.509-9.536-64.824-26.851-21.592-21.592-30.135-51.363-25.641-79.432-18.282 34.623-12.875 78.579 16.225 107.68 17.315 17.315 40.337 26.851 64.824 26.851 24.487 0 47.508-9.536 64.823-26.851 13.832-13.831 22.692-31.305 25.701-50.257-4.239 8.006-9.697 15.422-16.285 22.009z"/>
    <circle class="st7" cx="207.289" cy="291.48" r="9.987"/>
    <path class="st22"
          d="M314.133 285.217h-.051c-3.314-.028-5.978-2.737-5.95-6.051.302-35.88-30.683-50.96-32.002-51.584-2.989-1.415-4.278-4.985-2.872-7.979 1.407-2.992 4.963-4.289 7.959-2.89 1.604.748 39.282 18.824 38.915 62.554-.028 3.296-2.709 5.95-5.999 5.95zM303.618 321.954c-1.729 0-3.443-.743-4.63-2.18-2.11-2.555-1.749-6.337.806-8.447 8.602-7.103 8.252-18.062 8.233-18.524-.136-3.296 2.414-6.104 5.708-6.261 3.292-.162 6.098 2.355 6.276 5.649.038.704.778 17.361-12.577 28.39-1.118.923-2.471 1.373-3.816 1.373z"/>
    <circle class="st22" cx="250.104" cy="225.089" r="9.987"/>
    <path class="st7"
          d="M210.847 326.854c22.124 22.124 56.334 25.502 84.031 10.703-7.541 2.044-15.324 3.218-23.224 3.456-25.982.782-50.105-8.602-67.925-26.421-2.241-2.241-4.331-4.578-6.286-6.994 3.225 7.011 7.686 13.538 13.404 19.256z"/>
</svg>
