<svg xmlns="http://www.w3.org/2000/svg" viewBox="0 0 512 512">
    <style type="text/css">.st0{fill:#FFA730;} .st1{fill:#E58D23;} .st2{fill:#BF6C0D;} .st3{fill:#A56021;}
        .st4{fill:#FFD551;} .st5{fill:#FFF4C1;} .st6{fill:#FFC34C;} .st7{fill:#FFEA63;} .st8{fill:#FCE575;}
        .st9{fill:#FFB74B;} .st10{fill:#8C4C17;} .st11{fill:#F9BB32;} .st12{fill:#FF4B34;} .st13{fill:#FF9079;}
        .st14{fill:#FFDF74;} .st15{fill:#FF624B;} .st16{fill:#CCC033;} .st17{fill:#EACF32;} .st18{fill:#FFEACF;}
        .st19{fill:#99AF17;} .st20{fill:#FFD59A;} .st21{fill:#FCDA4F;} .st22{fill:#FCF9DE;} .st23{fill:#DB9C2E;}
    </style>
    <path class="st4"
          d="M325.771 488.082h-139.841c-14.359 0-26-11.641-26-26v-114.182c0-14.359 11.641-26 26-26h140.84c13.807 0 25 11.193 25 25v115.182c.001 14.359-11.64 26-25.999 26zM317.101 107.486s-.479-.141-.959-.221c-.61-.13-1.226-.243-1.845-.351-31.478-6.716-28.981-45.149-28.981-45.149v-14.513c0-2.672-2.166-4.838-4.838-4.838h-56.209c-2.672 0-4.838 2.166-4.838 4.838v14.513h-.569s2.658 40.91-32.083 45.69l-.159.025-.045.007h.007c-16.426 2.566-28.995 16.775-28.995 33.921v146.154c0 18.964 15.374 34.338 34.338 34.338h140.476c12.156 0 22.011-9.855 22.011-22.011v-145.275c0-22.919-15.926-42.104-37.311-47.128zm-97.67 187.783c0 3.206-2.599 5.806-5.806 5.806h-18.065c-10.688 0-19.352-8.664-19.352-19.352v-122.784c0-10.688 8.664-19.352 19.352-19.352h18.065c3.206 0 5.806 2.599 5.806 5.806v149.876z"/>
    <path class="st9"
          d="M219.431 295.269v-149.877c0-3.206-2.599-5.806-5.806-5.806h-12.579c3.206 0 5.806 2.6 5.806 5.806v149.876c0 3.206-2.599 5.806-5.806 5.806h12.579c3.207 0 5.806-2.599 5.806-5.805z"/>
    <path class="st6"
          d="M199.057 301.074h-3.497c-10.688 0-19.352-8.664-19.352-19.352v-122.783c0-10.688 8.664-19.352 19.352-19.352h.784c.853-16.323 13.102-29.626 28.943-32.1h-.007l.045-.007.159-.025c34.74-4.779 32.083-45.69 32.083-45.69h.569v-14.513c0-2.672 2.166-4.838 4.838-4.838h-38.705c-2.672 0-4.838 2.166-4.838 4.838v14.513h-.569s2.658 40.91-32.083 45.69l-.159.025-.045.007h.007c-16.426 2.566-28.995 16.775-28.995 33.921v146.154c0 18.964 15.374 34.338 34.338 34.338h38.705c-14.166 0-26.325-8.58-31.573-20.826z"/>
    <path class="st1"
          d="M285.47 68.776h-66.763c-4.971 0-9-4.029-9-9v-26.858c0-4.971 4.029-9 9-9h66.763c4.971 0 9 4.029 9 9v26.858c0 4.971-4.029 9-9 9z"/>
    <path class="st6"
          d="M198.635 482.277v-115.867c0-13.894 11.264-25.158 25.158-25.158h127.493c-2.241-11.042-12.003-19.352-23.706-19.352h-142.492c-13.894 0-25.158 11.264-25.158 25.158v115.866c0 13.894 11.264 25.158 25.158 25.158h14.227c-.44-1.865-.68-3.807-.68-5.805z"/>
    <path class="st2"
          d="M248.412 60.067v-27.441c0-4.81 3.899-8.709 8.709-8.709h-38.705c-4.81 0-8.709 3.899-8.709 8.709v27.441c0 4.81 3.899 8.709 8.709 8.709h38.705c-4.81 0-8.709-3.899-8.709-8.709z"/>
    <circle class="st6" cx="225.874" cy="458.663" r="15"/>
    <circle class="st6" cx="252.089" cy="254.227" r="15"/>
    <circle class="st6" cx="282.449" cy="282.579" r="15"/>
    <path class="st14"
          d="M334.643 260.227c-3.313 0-6-2.687-6-6v-95.555c0-3.313 2.687-6 6-6s6 2.687 6 6v95.555c0 3.313-2.687 6-6 6z"/>
    <path class="st5" d="M159.93 362.843h191.84v70.231h-191.84z"/>
    <path class="st8" d="M198.635 366.41c0-1.211.091-2.401.256-3.567h-38.961v70.231h38.705v-66.664z"/>
    <path class="st22"
          d="M334.643 460.227c-3.313 0-6-2.687-6-6v-95.555c0-3.313 2.687-6 6-6s6 2.687 6 6v95.555c0 3.313-2.687 6-6 6z"/>
</svg>
